<svg xmlns="http://www.w3.org/2000/svg" version="1.1" xmlns:xlink="http://www.w3.org/1999/xlink" xmlns:svgjs="http://svgjs.dev/svgjs" width="100%" height="100%" viewBox="0 0 1000 600"><rect width="1000" height="600" x="0" y="0" fill="#343a40"/><g><circle r="166.66666666666666" cx="362.75255839029944" cy="384.9747872345298" fill="#e51d2e" transform="matrix(0.6374757289209168,0,0,0.6374757289209168,0,54.58791422145208)"/><path d="M346.1432439136453 459.9747984409222L346.1432439136453 459.9747984409222Q337.4084633243765 454.38983267020785 332.7499136767665 454.38983267020785Q328.09136402915647 454.38983267020785 323.7239737345221 457.16908103952073Q319.35658343988774 459.9747984409222 316.84202539146185 459.9747984409222L316.84202539146185 459.9747984409222Q310.7806170431511 459.9747984409222 303.52810225084914 449.36071657335617L303.52810225084914 449.36071657335617Q302.2311196785032 452.5370004239994 299.34599518083564 455.0250894403365L299.34599518083564 455.0250894403365Q293.84043650638745 459.9747984409222 289.34070105130957 459.9747984409222Q284.81449656414304 459.9747984409222 282.405814644072 458.5719397402214Q279.9971327240009 457.16908103952073 279.6000972426705 455.79269137090864L279.6000972426705 455.79269137090864L279.2295307934288 454.38983267020785Q285.5556294626265 450.2871326964604 287.14377138794805 446.95203465328507L287.14377138794805 446.95203465328507Q287.8849042864315 445.1786095033426 288.49369202447144 444.0139720914402Q289.1024797625114 442.8493346795376 289.42010814757566 440.3347766311118Q289.7642055647287 437.8202185826859 289.9759578214382 436.28501472154176Q290.2141791102365 434.7498108603975 290.32005523859124 431.20296056051257Q290.39946233485733 427.68257929271647 290.39946233485733 425.53858769353224L290.39946233485733 425.53858769353224L290.39946233485733 418.5507632221172Q290.39946233485733 397.0579091660983 283.8086733447727 389.24954469993384L283.8086733447727 389.24954469993384Q282.2999385157172 387.4761195499914 281.29411529634683 386.54970342688716Q280.2618230448878 385.62328730378283 280.2618230448878 384.7762782769447Q280.2618230448878 383.95573828219517 281.29411529634683 383.00285312700225Q282.2999385157172 382.07643700389804 283.8351423768614 380.3030118539556Q285.3703462380056 378.5560557361018 286.8790810670611 375.3797718854586L286.8790810670611 375.3797718854586Q290.39946233485733 367.836097740181 290.39946233485733 351.79586429443293Q290.39946233485733 335.72916181659616 287.9378423506089 328.60899218473764Q285.4762223663604 321.5152915849679 279.1501236971627 315.45388323665713L279.1501236971627 315.45388323665713Q279.1501236971627 312.0923161613931 284.3645230186353 310.53064326816013L284.3645230186353 310.53064326816013Q286.32323139319857 309.97479359429764 289.15541782668873 309.97479359429764Q291.98760426017895 309.97479359429764 294.740383597403 310.980616813668Q297.4666939025384 312.012909065127 299.16071195621475 313.41576776582775L299.16071195621475 313.41576776582775Q302.68109322401097 316.30089226349526 304.3751112776873 319.74186643502543L304.3751112776873 319.74186643502543Q304.82508482319514 318.81545031192115 306.65144803731494 316.69792774482573Q308.4513422193461 314.60687420981895 310.14536027302245 313.309891637473L310.14536027302245 313.309891637473Q314.6980337922777 309.97479359429764 318.45663634887217 309.97479359429764Q322.24170793755525 309.97479359429764 324.2268853442073 310.53064326816013Q326.238531782948 311.08649294202274 327.16494790605225 311.9070329367722L327.16494790605225 311.9070329367722Q329.2030633768816 313.7863342150695 329.4942227298572 315.45388323665713L329.4942227298572 315.45388323665713Q323.1681240606596 321.5152915849679 320.7065040764111 328.60899218473764Q318.2184150600739 335.72916181659616 318.2184150600739 347.0579075505568Q318.2184150600739 358.3601842524289 319.25070731153295 365.2950706596665Q320.28299956299196 372.22995706690415 321.7652653599588 375.3797718854586Q323.2475311569256 378.5560557361018 324.78273501806984 380.3030118539556Q326.317938879214 382.07643700389804 327.3502311306731 383.00285312700225Q328.3825233821321 383.95573828219517 328.3825233821321 384.7762782769447Q328.3825233821321 385.62328730378283 327.3502311306731 386.54970342688716Q326.317938879214 387.4761195499914 324.78273501806984 389.30248276411123Q323.2475311569256 391.1023769461424 321.7652653599588 394.17278466843084L321.7652653599588 394.17278466843084Q318.2184150600739 401.42529946073273 318.2184150600739 418.5507632221172L318.2184150600739 418.5507632221172L318.13900796380784 428.97956186506235Q318.13900796380784 433.0822618388098 318.6948576376704 434.273368282801Q319.25070731153295 435.4909437588809 321.20941568609624 435.4909437588809L321.20941568609624 435.4909437588809L330.52651498131627 434.93509408501836Q336.5614542975383 434.93509408501836 339.5524549235607 433.5322353843176Q342.5169865174943 432.1558457157056 346.1432439136453 428.5031192874659L346.1432439136453 428.5031192874659Q348.3931116411842 428.5031192874659 349.5048109889093 432.0499695873508L349.5048109889093 432.0499695873508Q349.875377438151 433.3469521596968 349.875377438151 435.4115366626148Q349.875377438151 437.44965213344426 348.578394865805 439.6730508288945L348.578394865805 439.6730508288945Q346.61968649124174 443.0346179041585 344.55510198832366 444.1463172518836L344.55510198832366 444.1463172518836Q349.875377438151 448.61958367487273 349.875377438151 453.35754041874884L349.875377438151 453.35754041874884Q349.875377438151 459.04838231781787 346.1432439136453 459.9747984409222ZM426.4502872707405 385.33212795080726L424.8621453454189 386.3644202022663Q431.4794033675922 390.7318104969007 431.4794033675922 395.8668027221072L431.4794033675922 395.8668027221072Q431.4794033675922 399.86362656749986 429.6265711213837 400.4194762413624L429.6265711213837 400.4194762413624L428.9648453191664 400.6047594659832Q420.2300647298976 394.7286343422934 403.4751674177548 394.7286343422934L403.4751674177548 394.7286343422934L400.4047596954664 419.47717934522154L400.4047596954664 427.2061367151199Q400.4047596954664 442.47876823029594 403.18400806477916 446.7667514286643L403.18400806477916 446.7667514286643Q405.6191590169389 450.76357527405696 407.55139835941355 452.3252481672898Q409.51010673397684 453.9133900926114 411.654098333161 455.2103726649574L411.654098333161 455.2103726649574Q410.2512396324602 458.09549716262495 407.04848674972834 459.04838231781787Q403.8457338669965 459.9747984409222 400.82826420888546 459.9747984409222Q397.78432551868576 459.9747984409222 393.9727848979139 457.3278952320528Q390.1612442771421 454.65452299109484 388.3084120309336 451.95468171804805L388.3084120309336 451.95468171804805L386.53498688099114 449.36071657335617Q382.6175701318645 455.79269137090864 375.6562146925382 458.8630990931971L375.6562146925382 458.8630990931971Q372.8504972911367 459.9747984409222 370.46828440315437 459.9747984409222Q368.11254054726066 459.9747984409222 366.444991525673 459.44541779914834Q364.7509734719966 458.9425061894632 363.7451502526263 458.30724941933454L363.7451502526263 458.30724941933454Q361.3099993004665 456.71910749401286 360.3835831773622 455.2103726649574L360.3835831773622 455.2103726649574Q364.9362566966175 452.4311242956446 366.47146055776165 450.2341946322831Q368.00666441890587 448.0637340010102 368.80073538156665 446.8461585249303Q369.59480634422744 445.6285830488505 370.15065601809005 443.0875559683359Q370.7065056919526 440.5200598557326 370.9976650449282 438.87897986623364Q371.26235536581515 437.26436890882337 371.4211695583473 433.4528282880516Q371.5535147187908 429.6412876672797 371.5535147187908 427.2061367151199L371.5535147187908 427.2061367151199L371.5535147187908 419.47717934522154Q371.5535147187908 394.4639440214064 362.4216986481916 386.62911052315326L362.4216986481916 386.62911052315326Q361.41587542882127 385.7026944000489 361.41587542882127 384.8292163411221Q361.41587542882127 383.95573828219517 362.4216986481916 383.00285312700225Q363.45399089965065 382.07643700389804 364.9891947607948 380.3030118539556Q366.52439862193904 378.5560557361018 368.00666441890587 375.3797718854586L368.00666441890587 375.3797718854586Q371.5535147187908 367.836097740181 371.5535147187908 351.79586429443293Q371.5535147187908 335.72916181659616 369.0918947345423 328.60899218473764Q366.63027475029384 321.5152915849679 360.30417608109616 315.45388323665713L360.30417608109616 315.45388323665713Q360.30417608109616 312.0923161613931 365.41269927421394 310.53064326816013L365.41269927421394 310.53064326816013Q367.4508147450433 309.97479359429764 370.3359392427109 309.97479359429764Q373.22106374037844 309.97479359429764 376.34440952684423 310.980616813668Q379.46775531331 312.012909065127 381.6117469124942 313.41576776582775L381.6117469124942 313.41576776582775Q385.9791372071286 316.38029935976135 388.5731023518205 319.74186643502543L388.5731023518205 319.74186643502543Q395.9314932724772 309.97479359429764 405.14271643934245 309.97479359429764L405.14271643934245 309.97479359429764Q410.2512396324602 309.97479359429764 415.624453146465 312.25113035392525Q420.971197628381 314.52746711355286 424.2268885752903 318.89485740818725L424.2268885752903 318.89485740818725Q424.67686212079803 318.04784838134907 426.4502872707405 316.1420780709632Q428.22371242068294 314.23630776057723 429.81185434600457 313.1246084128521L429.81185434600457 313.1246084128521Q434.1792446406389 309.97479359429764 437.540811715903 309.97479359429764Q440.8759097590783 309.97479359429764 442.3581755560451 310.37182907562806Q443.86691038510065 310.7953335890471 444.60804328358404 311.45705939126447L444.60804328358404 311.45705939126447Q445.9844329521961 312.5687587389896 446.3549994014378 314.05102453595634L446.3549994014378 314.05102453595634Q441.61704265756174 317.59787483584125 439.71127234717585 322.1505483550965Q437.8055020367899 326.7032218743517 437.8055020367899 333.21460376817026L437.8055020367899 333.21460376817026Q437.8055020367899 344.6756946625744 445.4285832783335 350.44594365790954L445.4285832783335 350.44594365790954Q445.05801682909186 351.9282094548764 443.2845916791494 353.01343977051283Q441.53763556129564 354.07220105406054 438.8377942882489 354.07220105406054L438.8377942882489 354.07220105406054Q432.69697884367207 354.07220105406054 427.5619866184656 348.7783946363219L427.5619866184656 348.7783946363219Q425.8150305006119 350.8165101071513 422.6387466499687 352.4311210645616Q419.46246279932546 354.07220105406054 416.57733830165796 354.07220105406054Q413.7186828360791 354.07220105406054 412.0776028465801 353.1457849309563Q410.4365228570811 352.219368807852 409.88067318321856 350.44594365790954L409.88067318321856 350.44594365790954Q416.39205507703707 344.49041143795364 416.39205507703707 337.5025869665386L416.39205507703707 337.5025869665386Q416.39205507703707 333.6116392495007 414.5392228308286 330.6735766876557Q412.68639058462 327.73551412581077 408.50428351460647 327.73551412581077L408.50428351460647 327.73551412581077Q400.4047596954664 327.73551412581077 400.4047596954664 334.7233385972258L400.4047596954664 334.7233385972258Q400.4047596954664 335.0939050464675 400.4047596954664 335.5438785919753L400.4047596954664 335.5438785919753L403.4751674177548 377.7884538055297Q420.68003827540537 377.7884538055297 428.9648453191664 372.12408093854935L428.9648453191664 372.12408093854935Q429.89126144227066 372.12408093854935 430.6853324049314 373.47400157507263Q431.4794033675922 374.823922211596 431.4794033675922 377.10025897122364Q431.4794033675922 379.37659573085125 429.81185434600457 381.81174668301105Q428.11783629232815 384.22042860308215 426.4502872707405 385.33212795080726L426.4502872707405 385.33212795080726Z " fill="white" transform="matrix(0.6374757289209168,0,0,0.6374757289209168,0,54.58791422145208)"/><path d="M671.9618561013108 458.3372327009623L671.9618561013108 458.3372327009623Q664.2419562448438 453.40117552000913 660.1246763213946 453.40117552000913Q656.0073963979457 453.40117552000913 652.1474464697121 455.8575072925214Q648.2874965414787 458.3372327009623 646.0651011282533 458.3372327009623L646.0651011282533 458.3372327009623Q640.7079585005838 458.3372327009623 634.2981022561235 448.95638469355856L634.2981022561235 448.95638469355856Q633.1518140956177 451.763621005001 630.6019077793908 453.9626227822977L630.6019077793908 453.9626227822977Q625.7360315062238 458.3372327009623 621.7591133983467 458.3372327009623Q617.7588016545412 458.3372327009623 615.6299807850305 457.0973699967418Q613.50115991552 455.8575072925214 613.1502553765897 454.64103822422965L613.1502553765897 454.64103822422965L612.822744473588 453.40117552000913Q618.4138234605443 449.7751619510626 619.8174416162657 446.82756382404796L619.8174416162657 446.82756382404796Q620.4724634222689 445.2601902168259 621.0105170486288 444.2308702359636Q621.5485706749886 443.2015502551013 621.8292943061329 440.97915484187604Q622.1334115732058 438.75675942865064 622.3205606606352 437.3999285447867Q622.5311033839935 436.04309766092285 622.6246779277083 432.9083504464787Q622.6948588354942 429.79699686796323 622.6948588354942 427.9021123577395L622.6948588354942 427.9021123577395L622.6948588354942 421.7261924725659Q622.6948588354942 402.7305600984714 616.869843489251 395.8294374995086L616.869843489251 395.8294374995086Q615.5364062413158 394.2620638922865 614.6474480760257 393.44328663478245Q613.7350962748069 392.6245093772784 613.7350962748069 391.8759130275604Q613.7350962748069 391.150710313771 614.6474480760257 390.3085394203382Q615.5364062413158 389.48976216283415 616.8932371251797 387.9223885556121Q618.2500680090436 386.37840858431866 619.5835052569788 383.5711722728762L619.5835052569788 383.5711722728762Q622.6948588354942 376.9039860332001 622.6948588354942 362.72744266041536Q622.6948588354942 348.52750565170186 620.5192506941263 342.23461758688484Q618.3436425527584 335.9651231579966 612.7525635658019 330.60798053032704L612.7525635658019 330.60798053032704Q612.7525635658019 327.63698876738374 617.3611098437534 326.25676424759115L617.3611098437534 326.25676424759115Q619.0922389024763 325.7654978930887 621.595357946846 325.7654978930887Q624.0984769912155 325.7654978930887 626.531415127799 326.65445605837886Q628.9409596284539 327.56680785959765 630.4381523278898 328.8066705638181L630.4381523278898 328.8066705638181Q633.5495059064053 331.35657688004505 635.0466986058414 334.3977495507745L635.0466986058414 334.3977495507745Q635.4443904166292 333.57897229327045 637.0585512957086 331.70748141897536Q638.6493185388593 329.859384180609 640.1465112382954 328.7130960201033L640.1465112382954 328.7130960201033Q644.1702166180296 325.7654978930887 647.4921129199033 325.7654978930887Q650.8374028577057 325.7654978930887 652.5919255523572 326.25676424759115Q654.3698418829375 326.74803060209354 655.1886191404416 327.4732333158829L655.1886191404416 327.4732333158829Q656.9899291069505 329.13418146681977 657.247259102166 330.60798053032704L657.247259102166 330.60798053032704Q651.6561801152097 335.9651231579966 649.4805719738417 342.23461758688484Q647.2815701965451 348.52750565170186 647.2815701965451 358.5399818291803Q647.2815701965451 368.5290643707299 648.1939219977639 374.6581969840462Q649.1062737989828 380.7873295973624 650.4163174109892 383.5711722728762Q651.7263610229958 386.37840858431866 653.0831919068596 387.9223885556121Q654.4400227907236 389.48976216283415 655.3523745919424 390.3085394203382Q656.2647263931613 391.150710313771 656.2647263931613 391.8759130275604Q656.2647263931613 392.6245093772784 655.3523745919424 393.44328663478245Q654.4400227907236 394.2620638922865 653.0831919068596 395.87622477136597Q651.7263610229958 397.4669920145167 650.4163174109892 400.18065378224446L650.4163174109892 400.18065378224446Q647.2815701965451 406.5905100267049 647.2815701965451 421.7261924725659L647.2815701965451 421.7261924725659L647.211389288759 430.94328502846895Q647.211389288759 434.5692985974156 647.7026556432616 435.6220122142065Q648.1939219977639 436.6981194669261 649.9250510564868 436.6981194669261L649.9250510564868 436.6981194669261L658.1596109033849 436.2068531124237Q663.4933598951258 436.2068531124237 666.1368407550674 434.9669904082032Q668.7569279790805 433.7505213399114 671.9618561013108 430.5221995817525L671.9618561013108 430.5221995817525Q673.9503151552492 430.5221995817525 674.932847864254 433.65694679619673L674.932847864254 433.65694679619673Q675.2603587672556 434.80323495670245 675.2603587672556 436.62793855914003Q675.2603587672556 438.429248525649 674.1140706067499 440.39431394365874L674.1140706067499 440.39431394365874Q672.382941548027 443.36530570660216 670.5582379455894 444.34783841560704L670.5582379455894 444.34783841560704Q675.2603587672556 448.30136288755523 675.2603587672556 452.4888237187904L675.2603587672556 452.4888237187904Q675.2603587672556 457.51845544345827 671.9618561013108 458.3372327009623ZM739.9905493819347 445.4239456683266L739.9905493819347 445.4239456683266Q737.6745794249946 453.7286864230108 731.0073931853187 457.02718908895577L731.0073931853187 457.02718908895577Q727.8960396068032 458.5711690602492 724.691111484573 459.2729781381098Q721.4861833623427 459.9747872159704 716.3863707298888 459.9747872159704Q711.2865580974349 459.9747872159704 705.6954791104786 457.8459663464598L705.6954791104786 457.8459663464598Q702.2332209930328 456.5125290985246 699.5663464971623 454.383708229014Q696.8760783653631 452.2548873595035 694.6536829521378 448.41833106719866Q692.4546811748412 444.60516841082256 691.5423293736224 439.6925048657981Q690.6299775724035 434.80323495670245 686.021431294452 429.21215596974605L686.021431294452 429.21215596974605Q684.5476322309448 427.48102691102315 684.5476322309448 427.08333510023544Q684.5476322309448 426.6622496535191 687.4718367220307 423.3403533516454Q690.3960412131166 419.995063413843 691.121243926906 416.55619893232597L691.121243926906 416.55619893232597Q693.5073947916321 405.4442218661992 701.975890997817 400.9292501319625L701.975890997817 400.9292501319625Q705.6954791104786 398.870610170238 709.9531208494998 397.4669920145167Q714.2341562244496 396.06337385879544 718.2344679682551 394.9170856982897Q722.2113860761322 393.770797537784 725.509888742077 392.15663665870454Q728.7849977720932 390.56586941555383 730.7734568260319 387.477909472967Q732.7385222440416 384.38994953038025 732.7385222440416 378.4245723685649Q732.7385222440416 372.4591952067494 732.3408304332538 367.3593825742955L732.3408304332538 367.3593825742955Q732.0835004380383 364.24802899578003 731.4752659038925 362.6104744807719Q730.8436377338178 360.94952632983507 729.861105024813 359.382152722613Q728.878572315808 357.8381727513196 727.3111987085861 357.2065445812451Q725.7438251013639 356.5983100470992 722.9599824258501 356.5983100470992Q720.1527461144076 356.5983100470992 718.094106152683 358.9844609118253Q716.0588598268871 361.3706117765515 716.0588598268871 364.99662534549805Q716.0588598268871 368.59924527851604 718.5619788712568 373.74584518282734Q721.0650979156264 378.89244508713864 725.4163141983622 379.94515870392956L725.4163141983622 379.94515870392956Q723.1939187851369 385.2087267878843 718.0707125167544 385.2087267878843Q712.924112612443 385.2087267878843 708.5728963297072 381.8400432141533L708.5728963297072 381.8400432141533Q708.9705881404948 382.26112866086964 706.7481927272695 385.8871422298163L706.7481927272695 385.8871422298163Q705.7656600182645 387.5246967448244 704.3620418625433 389.1622512598326Q702.9818173427507 390.7998057748407 700.7594219295254 391.96948757127507Q698.5370265163001 393.1157757317808 696.22105655936 393.1157757317808Q693.9284802383486 393.1157757317808 692.9459475293436 391.8759130275604L692.9459475293436 391.8759130275604Q697.2035892683648 387.5948776526104 697.2035892683648 383.8285022680917L697.2035892683648 383.8285022680917Q697.2035892683648 382.4248841123705 696.0573011078591 377.86312510627636Q694.9110129473534 373.30136610018224 694.9110129473534 371.07897068695695L694.9110129473534 371.07897068695695Q694.9110129473534 361.04310087354986 702.5607318960343 354.8671809883763L702.5607318960343 354.8671809883763Q705.9294154697654 352.08333831286245 711.9415799034382 349.20592109363383Q717.9303507011823 346.3051102384766 725.7438251013639 346.3051102384766L725.7438251013639 346.3051102384766Q758.5650963093128 346.3051102384766 758.5650963093128 382.16755411715496L758.5650963093128 382.16755411715496Q758.5650963093128 390.7998057748407 761.8635989752579 397.6307474660175L761.8635989752579 397.6307474660175Q763.4309725824799 400.76549468046164 768.7647215742209 403.87684825897713L768.7647215742209 403.87684825897713Q768.7647215742209 404.2043591619788 767.8289761370731 404.8827746039108Q766.869837063997 405.537796409914 765.4662189082758 406.964808201564Q764.0859943884832 408.4152136291426 762.682376232762 410.6376090423679Q761.2787580770407 412.8600044555933 760.3430126398932 417.04746528682836Q759.3838735668169 421.2349261180635 759.3838735668169 429.3759114212469Q759.3838735668169 437.51689672443024 761.5360880722562 443.6460293377464Q763.6649089417667 449.7751619510626 767.7821888652159 454.1263782337985L767.7821888652159 454.1263782337985Q767.0335925154977 455.52999638951974 764.6474416507717 456.86343363745493L764.6474416507717 456.86343363745493Q763.501153490266 457.42488089974347 761.3957262566842 457.8693599823886Q759.313692659031 458.3372327009623 756.5532436194458 458.3372327009623Q753.7927945798606 458.3372327009623 751.0089519043468 456.9336145452411L751.0089519043468 456.9336145452411Q744.014254761669 453.4713564277953 739.9905493819347 445.4239456683266ZM714.725422578952 426.59206874573294L714.725422578952 428.393378712242Q714.725422578952 446.897744731834 722.5388969791336 446.897744731834L722.5388969791336 446.897744731834Q725.8373996450787 446.897744731834 727.4749541600868 445.6578820276135L727.4749541600868 445.6578820276135Q728.4574868690918 445.00286022161026 729.2060832188097 444.34783841560704Q729.9546795685278 443.6928166096037 730.4927331948875 442.2891984538825Q731.0073931853187 440.88558029816124 731.8729577146801 438.75675942865064Q732.7385222440416 436.62793855914003 732.7385222440416 424.86093968701005L732.7385222440416 424.86093968701005Q732.7385222440416 424.86093968701005 732.7385222440416 410.6376090423679L732.7385222440416 410.6376090423679Q732.7385222440416 398.05183291273386 732.8320967877562 398.05183291273386L732.8320967877562 398.05183291273386Q730.6798822823171 400.27422832595926 726.0011550965794 403.8066673511911Q721.322427910842 407.33910637642293 718.5151915993995 410.96511994536957L718.5151915993995 410.96511994536957Q714.725422578952 415.80760258260796 714.725422578952 426.59206874573294L714.725422578952 426.59206874573294ZM873.7085723503142 392.3671793820628L872.3049541945927 393.2795311832816Q878.1533631767647 397.1394811115151 878.1533631767647 401.6778464816805L878.1533631767647 401.6778464816805Q878.1533631767647 405.2102855069123 876.5158086617566 405.7015518614148L876.5158086617566 405.7015518614148L875.9309677635395 405.86530731291566Q868.1876742711438 400.67192013674696 853.4028963642131 400.67192013674696L853.4028963642131 400.67192013674696L850.6892345964852 422.54496973006997L850.6892345964852 429.3759114212469Q850.6892345964852 442.87403935209966 853.1455663689976 446.6638083725471L853.1455663689976 446.6638083725471Q855.2743872385081 450.19624739777896 857.005516297231 451.57647191757155Q858.7366453559539 452.9800900732928 860.6315298661775 454.1263782337985L860.6315298661775 454.1263782337985Q859.3916671619572 456.67628455002546 856.5610372145859 457.51845544345827Q853.7304072672148 458.3372327009623 851.0401391354155 458.3372327009623Q848.3732646395451 458.3372327009623 845.0045810658141 455.9978691080935Q841.6358974920831 453.6351118792961 839.998342977075 451.2489610145699L839.998342977075 451.2489610145699L838.4309693698528 448.95638469355856Q834.968711252407 454.64103822422965 828.7927913672336 457.35469999195743L828.7927913672336 457.35469999195743Q826.3364595947214 458.3372327009623 824.2310323611393 458.3372327009623Q822.1489987634861 458.3372327009623 820.6518060640501 457.8693599823886Q819.178007000543 457.42488089974347 818.2656551993241 456.86343363745493L818.2656551993241 456.86343363745493Q816.1368343298134 455.4598154817337 815.3180570723093 454.1263782337985L815.3180570723093 454.1263782337985Q819.3417624520437 451.67004646128635 820.6985933359076 449.7283746792052Q822.0554242197716 447.81009653305284 822.7572332976322 446.73398928033316Q823.4590423754928 445.6578820276135 823.9503087299952 443.41209297845955Q824.4415750844976 441.14291029337676 824.6989050797133 439.6925048657981Q824.932841439 438.26549307414825 825.0498096186436 434.89680950041713Q825.1901714342157 431.52812592668613 825.1901714342157 429.3759114212469L825.1901714342157 429.3759114212469L825.1901714342157 422.54496973006997Q825.1901714342157 400.4379837774601 817.1193670388184 393.5134675425685L817.1193670388184 393.5134675425685Q816.2304088735282 392.69469028506444 816.2304088735282 391.9227002994178Q816.2304088735282 391.150710313771 817.1193670388184 390.3085394203382Q818.0317188400372 389.48976216283415 819.3885497239012 387.9223885556121Q820.7453806077649 386.37840858431866 822.0554242197716 383.5711722728762L822.0554242197716 383.5711722728762Q825.1901714342157 376.9039860332001 825.1901714342157 362.72744266041536Q825.1901714342157 348.52750565170186 823.0145632928477 342.23461758688484Q820.815561515551 335.9651231579966 815.2244825285948 330.60798053032704L815.2244825285948 330.60798053032704Q815.2244825285948 327.63698876738374 819.7628478987601 326.25676424759115L819.7628478987601 326.25676424759115Q821.564157865269 325.7654978930887 824.1140641814959 325.7654978930887Q826.6639704977231 325.7654978930887 829.424419537308 326.65445605837886Q832.1848685768932 327.56680785959765 834.0563594511882 328.8066705638181L834.0563594511882 328.8066705638181Q837.9397030153505 331.4267577878311 840.2322793363619 334.3977495507745L840.2322793363619 334.3977495507745Q846.735710124537 325.7654978930887 854.8766954277205 325.7654978930887L854.8766954277205 325.7654978930887Q859.3916671619572 325.7654978930887 864.1171816195522 327.7773505829558Q868.8660897130758 329.789203272823 871.7435069323044 333.6491532010565L871.7435069323044 333.6491532010565Q872.141198743092 332.9005568513385 873.7085723503142 331.216215064473Q875.2759459575361 329.5318732776075 876.6795641132574 328.5493405686026L876.6795641132574 328.5493405686026Q880.539514041491 325.7654978930887 883.4871121685055 325.7654978930887Q886.4581039314489 325.7654978930887 887.7681475434554 326.116402432019Q889.078191155462 326.490700606878 889.756606597394 327.0755415050952L889.756606597394 327.0755415050952Q890.9730756656857 328.0580742141001 891.3005865686873 329.36811782610664L891.3005865686873 329.36811782610664Q887.1131257374523 332.5028650405508 885.4287839505866 336.52657042028505Q883.7444421637213 340.55027580001934 883.7444421637213 346.3051102384766L883.7444421637213 346.3051102384766Q883.7444421637213 356.43455459559834 890.4818093111833 361.53436722805236L890.4818093111833 361.53436722805236Q890.1542984081816 362.8444108400588 888.5869248009594 363.80354991313504Q887.0429448296661 364.73929535028253 884.6567939649399 364.73929535028253L884.6567939649399 364.73929535028253Q879.2294704294845 364.73929535028253 874.6911050593189 360.060568164545L874.6911050593189 360.060568164545Q873.123731452097 361.8618781310539 870.3398887765832 363.2888899227039Q867.5326524651405 364.73929535028253 864.9827461489135 364.73929535028253Q862.4328398326866 364.73929535028253 861.0058280410367 363.9205180927785Q859.555422613458 363.1017408352744 859.0641562589556 361.53436722805236L859.0641562589556 361.53436722805236Q864.8189906974128 356.2707991440975 864.8189906974128 350.09487925892404L864.8189906974128 350.09487925892404Q864.8189906974128 346.6560147774069 863.1814361824045 344.05932118932253Q861.5438816673964 341.4626276012382 857.824293554735 341.4626276012382L857.824293554735 341.4626276012382Q850.6892345964852 341.4626276012382 850.6892345964852 347.63854748641177L850.6892345964852 347.63854748641177Q850.6892345964852 347.96605838941343 850.6892345964852 348.36375020020114L850.6892345964852 348.36375020020114L853.4028963642131 385.6999931423868Q868.60875971786 385.6999931423868 875.9309677635395 380.6937550536476L875.9309677635395 380.6937550536476Q876.7497450210435 380.6937550536476 877.4515540989041 381.8868304860107Q878.1533631767647 383.0799059183737 878.1533631767647 385.09175860824087Q878.1533631767647 387.10361129810804 876.6795641132574 389.2558258035473Q875.1823714138213 391.3846466730579 873.7085723503142 392.3671793820628L873.7085723503142 392.3671793820628ZM950.9309645509124 445.4239456683266L950.9309645509124 445.4239456683266Q948.638388229901 453.7286864230108 941.9712019902249 457.02718908895577L941.9712019902249 457.02718908895577Q938.8364547757808 458.5711690602492 935.6315266535507 459.2729781381098Q932.4265985313205 459.9747872159704 927.3267858988665 459.9747872159704Q922.2269732664126 459.9747872159704 916.6358942794561 457.8459663464598L916.6358942794561 457.8459663464598Q913.1736361620103 456.5125290985246 910.5067616661399 454.383708229014Q907.8398871702695 452.2548873595035 905.6174917570443 448.41833106719866Q903.395096343819 444.60516841082256 902.4827445426001 439.6925048657981Q901.5937863773099 434.80323495670245 896.9852400993584 429.21215596974605L896.9852400993584 429.21215596974605Q895.511441035851 427.48102691102315 895.511441035851 427.08333510023544Q895.511441035851 426.6622496535191 898.4122518910083 423.3403533516454Q901.3364563820944 419.995063413843 902.0850527318123 416.55619893232597L902.0850527318123 416.55619893232597Q904.4712035965385 405.4442218661992 912.9396998027235 400.9292501319625L912.9396998027235 400.9292501319625Q916.6358942794561 398.870610170238 920.916929654406 397.4669920145167Q925.1979650293558 396.06337385879544 929.1748831372329 394.9170856982897Q933.1751948810384 393.770797537784 936.4503039110548 392.15663665870454Q939.7488065769996 390.56586941555383 941.7138719950094 387.477909472967Q943.7023310489478 384.38994953038025 943.7023310489478 378.4245723685649Q943.7023310489478 372.4591952067494 943.2812456022316 367.3593825742955L943.2812456022316 367.3593825742955Q943.0473092429447 364.24802899578003 942.41568107287 362.6104744807719Q941.8074465387242 360.94952632983507 940.8249138297192 359.382152722613Q939.8423811207144 357.8381727513196 938.2750075134923 357.2065445812451Q936.7076339062703 356.5983100470992 933.9003975948276 356.5983100470992Q931.1165549193138 356.5983100470992 929.0579149575894 358.9844609118253Q926.9992749958649 361.3706117765515 926.9992749958649 364.99662534549805Q926.9992749958649 368.59924527851604 929.5023940402343 373.74584518282734Q932.0289067205326 378.89244508713864 936.3801230032686 379.94515870392956L936.3801230032686 379.94515870392956Q934.1577275900434 385.2087267878843 929.0111276857319 385.2087267878843Q923.8879214173494 385.2087267878843 919.5133114986847 381.8400432141533L919.5133114986847 381.8400432141533Q919.9343969454012 382.26112866086964 917.7120015321757 385.8871422298163L917.7120015321757 385.8871422298163Q916.7294688231709 387.5246967448244 915.3258506674497 389.1622512598326Q913.9222325117285 390.7998057748407 911.6998370985032 391.96948757127507Q909.4774416852777 393.1157757317808 907.1848653642662 393.1157757317808Q904.8688954073261 393.1157757317808 903.8863626983214 391.8759130275604L903.8863626983214 391.8759130275604Q908.1673980732712 387.5948776526104 908.1673980732712 383.8285022680917L908.1673980732712 383.8285022680917Q908.1673980732712 382.4248841123705 907.0211099127655 377.86312510627636Q905.8748217522598 373.30136610018224 905.8748217522598 371.07897068695695L905.8748217522598 371.07897068695695Q905.8748217522598 361.04310087354986 913.5245407009406 354.8671809883763L913.5245407009406 354.8671809883763Q916.8932242746716 352.08333831286245 922.8819950724157 349.20592109363383Q928.8941595060885 346.3051102384766 936.7076339062703 346.3051102384766L936.7076339062703 346.3051102384766Q969.5289051142192 346.3051102384766 969.5289051142192 382.16755411715496L969.5289051142192 382.16755411715496Q969.5289051142192 390.7998057748407 972.8040141442355 397.6307474660175L972.8040141442355 397.6307474660175Q974.3713877514576 400.76549468046164 979.728530379127 403.87684825897713L979.728530379127 403.87684825897713Q979.728530379127 404.2043591619788 978.7693913060509 404.8827746039108Q977.8336458689034 405.537796409914 976.430027713182 406.964808201564Q975.0264095574607 408.4152136291426 973.6227914017395 410.6376090423679Q972.2425668819469 412.8600044555933 971.2834278088708 417.04746528682836Q970.3476823717233 421.2349261180635 970.3476823717233 429.3759114212469Q970.3476823717233 437.51689672443024 972.4765032412338 443.6460293377464Q974.6287177466731 449.7751619510626 978.7226040341934 454.1263782337985L978.7226040341934 454.1263782337985Q977.9974013204042 455.52999638951974 975.6112504556781 456.86343363745493L975.6112504556781 456.86343363745493Q974.4649622951722 457.42488089974347 972.3595350615903 457.8693599823886Q970.2541078280085 458.3372327009623 967.517052424352 458.3372327009623Q964.7566033847668 458.3372327009623 961.9493670733243 456.9336145452411L961.9493670733243 456.9336145452411Q954.9546699306468 453.4713564277953 950.9309645509124 445.4239456683266ZM925.6892313838582 426.59206874573294L925.6892313838582 428.393378712242Q925.6892313838582 446.897744731834 933.50270578404 446.897744731834L933.50270578404 446.897744731834Q936.7778148140565 446.897744731834 938.4387629649932 445.6578820276135L938.4387629649932 445.6578820276135Q939.421295673998 445.00286022161026 940.1698920237161 444.34783841560704Q940.8950947375054 443.6928166096037 941.4331483638653 442.2891984538825Q941.9712019902249 440.88558029816124 942.8367665195865 438.75675942865064Q943.7023310489478 436.62793855914003 943.7023310489478 424.86093968701005L943.7023310489478 424.86093968701005Q943.7023310489478 424.86093968701005 943.7023310489478 410.6376090423679L943.7023310489478 410.6376090423679Q943.7023310489478 398.05183291273386 943.772511956734 398.05183291273386L943.772511956734 398.05183291273386Q941.6436910872233 400.27422832595926 936.9649639014858 403.8066673511911Q932.2628430798195 407.33910637642293 929.4790004043057 410.96511994536957L929.4790004043057 410.96511994536957Q925.6892313838582 415.80760258260796 925.6892313838582 426.59206874573294L925.6892313838582 426.59206874573294ZM1011.1461834313548 449.6114064995618L1011.1461834313548 449.6114064995618Q1004.5491780994648 458.40741360874836 997.6480555005019 458.40741360874836L997.6480555005019 458.40741360874836Q992.548242868048 458.40741360874836 991.0744438045406 457.02718908895577L991.0744438045406 457.02718908895577Q989.0859847506022 455.13230457873203 988.7584738476005 453.9626227822977L988.7584738476005 453.9626227822977Q994.6068828297725 448.6288737905569 996.8760655148551 442.66349662874154Q999.1218545640093 436.6981194669261 999.1218545640093 428.81446415895834Q999.1218545640093 420.90741521506186 998.5136200298634 417.04746528682836Q997.9053854957174 413.18751535859485 996.7123100633544 410.87154540165477Q995.5192346309914 408.57896908064345 994.6536701016298 407.38589364828033Q993.7881055722685 406.1928182159172 992.4312746884045 405.16349823505504Q991.0744438045406 404.13417825419276 990.9808692608258 404.04060371047797L990.9808692608258 404.04060371047797Q990.9808692608258 403.8066673511911 991.7996465183298 403.1048582733305Q992.6418174117628 402.40304919546986 993.8582864800544 400.9760374038199Q995.0981491842749 399.52563197624124 996.2444373447806 397.30323656301596L996.2444373447806 397.30323656301596Q999.1218545640093 391.8759130275604 999.1218545640093 380.9510850488632Q999.1218545640093 370.00286343423727 996.6655227914971 363.9673053646359Q994.1857973830561 357.9083536591057 987.7759411385957 352.48103012365016L987.7759411385957 352.48103012365016Q989.9281556440349 348.1999947487003 998.7241627532217 348.1999947487003L998.7241627532217 348.1999947487003Q1005.6252853521844 348.1999947487003 1012.853918854149 356.83224640638605L1012.853918854149 356.83224640638605Q1014.5148670050858 358.82070546032446 1016.1524215200939 361.53436722805236L1016.1524215200939 361.53436722805236Q1023.3108741142723 346.3051102384766 1040.0373238032842 346.3051102384766Q1056.7871671282246 346.3051102384766 1063.6181088194014 360.6220154268335L1063.6181088194014 360.6220154268335Q1067.7119951069217 353.2998073811542 1074.3791813465978 349.81415562777977Q1081.0463675862738 346.3051102384766 1087.6199792822351 346.3051102384766Q1094.1935909781964 346.3051102384766 1099.2934036106503 348.0362392971995Q1104.3932162431042 349.7673683559224 1108.604070710268 353.46356283265504L1108.604070710268 353.46356283265504Q1117.7275887224562 361.44079268433757 1117.7275887224562 379.0562005386395L1117.7275887224562 379.0562005386395Q1117.7275887224562 396.90554475222825 1124.0672640591306 402.89431554997225L1124.0672640591306 402.89431554997225Q1124.7924667729199 403.5493373559756 1124.7924667729199 403.92363553083453Q1124.7924667729199 404.2979337056935 1124.0672640591306 404.8827746039108Q1123.3186677094125 405.4442218661992 1122.2893477285504 406.75426547820575Q1121.2600277476881 408.08770272614095 1120.2774950386834 410.21652359565155L1120.2774950386834 410.21652359565155Q1117.7275887224562 415.40991077182025 1117.7275887224562 426.10080239123056Q1117.7275887224562 436.79169401064087 1119.9499841356815 442.7102839005988Q1122.172379548907 448.6288737905569 1127.9973948951501 453.9626227822977L1127.9973948951501 453.9626227822977Q1125.7749994819249 458.40741360874836 1118.7101214314612 458.40741360874836Q1111.6452433809975 458.40741360874836 1105.6330789473247 449.6114064995618L1105.6330789473247 449.6114064995618Q1101.4456181160895 455.2024854865182 1095.4334536824167 457.51845544345827L1095.4334536824167 457.51845544345827Q1092.9771219099046 458.40741360874836 1091.362961030825 458.40741360874836Q1089.7721937876743 458.40741360874836 1089.1405656175998 458.2436581572475Q1088.532331083454 458.0799027057467 1088.1580329085948 457.8693599823886Q1087.7837347337359 457.6822108949591 1087.409436558877 457.26112544824264Q1087.0585320199466 456.86343363745493 1086.871382932517 456.559316370382Q1086.7076274810163 456.27859273923775 1086.5204783935867 455.78732638473537Q1086.3099356702285 455.29606003023287 1086.2631483983712 455.08551730687475Q1086.216361126514 454.8749745835165 1085.982424767227 453.9626227822977L1085.982424767227 453.9626227822977Q1089.8423746954604 448.6288737905569 1091.4097483026824 442.3359857257399Q1092.9771219099046 436.04309766092285 1092.9771219099046 428.06586780924033Q1092.9771219099046 420.0886379575578 1092.3922810116874 416.1819007574669Q1091.8074401134702 412.2751635573761 1090.9886628559661 410.16973632379415Q1090.169885598462 408.08770272614095 1089.351108340958 406.75426547820575Q1088.532331083454 405.4442218661992 1087.9474901852366 404.8359873320534Q1087.3860429229483 404.2043591619788 1087.3860429229483 404.04060371047797L1087.3860429229483 404.04060371047797Q1087.3860429229483 403.5493373559756 1088.228213816381 402.5200173751133Q1089.0937783457423 401.490697394251 1090.169885598462 399.8531428792429L1090.169885598462 399.8531428792429Q1092.9771219099046 395.57210750429306 1092.9771219099046 381.02126595664924L1092.9771219099046 381.02126595664924Q1092.9771219099046 359.7330572615433 1082.4733793779237 359.7330572615433Q1071.9930304818715 359.7330572615433 1070.1917205153627 378.2374232811354L1070.1917205153627 378.2374232811354Q1070.1917205153627 397.56056655823147 1076.6951513035378 402.89431554997225L1076.6951513035378 402.89431554997225Q1077.420354017327 403.5493373559756 1077.420354017327 403.92363553083453Q1077.420354017327 404.2979337056935 1076.6951513035378 404.8827746039108Q1075.94655495382 405.4442218661992 1074.9172349729577 406.75426547820575Q1073.8879149920954 408.08770272614095 1072.9053822830904 410.21652359565155L1072.9053822830904 410.21652359565155Q1070.3554759668634 415.40991077182025 1070.3554759668634 426.1241960271592Q1070.3554759668634 436.8618749184269 1072.5310841082314 442.780464808385Q1074.7066922495994 448.69905469834293 1080.6252821395574 453.9626227822977L1080.6252821395574 453.9626227822977Q1078.402886726332 458.40741360874836 1071.7590941225847 458.40741360874836L1071.7590941225847 458.40741360874836Q1067.314303296134 458.40741360874836 1064.6006415284064 456.18501819552307L1064.6006415284064 456.18501819552307Q1060.2260316097418 452.65257917029123 1058.1907852839458 449.6114064995618L1058.1907852839458 449.6114064995618Q1051.593779952056 458.40741360874836 1043.944061003375 458.40741360874836L1043.944061003375 458.40741360874836Q1038.8442483709212 458.40741360874836 1037.79153475413 453.9626227822977L1037.79153475413 453.9626227822977Q1042.5638364835825 448.6288737905569 1044.4821146297347 442.3359857257399Q1046.4237864118159 436.04309766092285 1046.4237864118159 428.1126550810977Q1046.4237864118159 420.1822125012726 1045.675190062098 416.2754753011817Q1044.9499873483087 412.3687381010908 1043.873880095589 410.26331086750895Q1042.7977728428693 408.157883633927 1041.768452862007 406.80105275006315Q1040.7391328811448 405.4442218661992 1040.0139301673555 404.8359873320534Q1039.2653338176376 404.2043591619788 1039.2653338176376 403.92363553083453Q1039.2653338176376 403.64291189969026 1040.0139301673555 402.98789009368704Q1040.7391328811448 402.3328682876838 1041.768452862007 401.0930055834633Q1042.7977728428693 399.8531428792429 1043.873880095589 397.7243220097323L1043.873880095589 397.7243220097323Q1046.4237864118159 392.6245093772784 1046.4237864118159 381.02126595664924L1046.4237864118159 381.02126595664924Q1046.4237864118159 359.7330572615433 1035.4755647971901 359.7330572615433L1035.4755647971901 359.7330572615433Q1029.8143049024475 359.7330572615433 1026.7263449598609 365.0668062532842Q1023.638385017274 370.4239488809536 1023.638385017274 379.383711441641Q1023.638385017274 388.34347400232855 1024.5039495466356 393.2795311832816Q1025.369514075997 398.2155883642347 1026.4456213287165 399.8531428792429Q1027.4983349455076 401.490697394251 1028.363899474869 402.5200173751133Q1029.2294640042303 403.5493373559756 1029.2294640042303 403.92363553083453Q1029.2294640042303 404.2979337056935 1028.6446231060131 404.9529555116968Q1028.0831758437246 405.60797731770003 1027.2877922221494 407.0115954734214Q1026.5158022365026 408.4152136291426 1025.6970249789986 410.6376090423679L1025.6970249789986 410.6376090423679Q1023.802140468775 415.9713580341088 1023.802140468775 426.3815260223748Q1023.802140468775 436.79169401064087 1025.6970249789986 442.7102839005988Q1027.5919094892222 448.6288737905569 1032.4343921264606 453.9626227822977L1032.4343921264606 453.9626227822977Q1031.872944864172 455.78732638473537 1030.1652094413778 457.0973699967418Q1028.4808676545124 458.40741360874836 1026.258472241287 458.40741360874836L1026.258472241287 458.40741360874836Q1017.9537314866029 458.40741360874836 1011.1461834313548 449.6114064995618ZM1145.1917173027357 346.49225932590605L1145.1917173027357 346.49225932590605Q1152.3501698969142 346.49225932590605 1157.520163437154 352.8085410266517L1157.520163437154 352.8085410266517Q1160.070069753381 349.042165642133 1165.6611487403375 347.14728113190927L1165.6611487403375 347.14728113190927Q1167.719788702062 346.49225932590605 1169.8720032075012 346.49225932590605Q1172.0008240770119 346.49225932590605 1173.5681976842338 346.93673840855115Q1175.135571291456 347.38121749119614 1175.8607740052453 348.0362392971995L1175.8607740052453 348.0362392971995Q1177.5217221561822 349.36967654513467 1177.7556585154691 350.9136565164281L1177.7556585154691 350.9136565164281Q1172.585664975229 355.94328824109596 1170.643993193148 361.44079268433757Q1168.7257150469954 366.9616907635078 1168.7257150469954 375.9214533241952Q1168.7257150469954 384.88121588488275 1169.5444923044997 390.02781578919405Q1170.3632695620038 395.17441569350535 1171.6031322662243 397.4202047426594Q1172.819601334516 399.6893874277421 1174.012676766879 400.8356755882478Q1175.2057521992422 402.00535738468216 1176.024529456746 402.613591918828Q1176.866700350179 403.2218264529739 1176.866700350179 403.8534546230485Q1176.866700350179 404.4616891571944 1176.024529456746 405.06992369134025Q1175.2057521992422 405.7015518614148 1174.012676766879 407.0115954734214Q1172.819601334516 408.3216390854278 1171.6031322662243 410.5440344986532L1171.6031322662243 410.5440344986532Q1168.7257150469954 415.7374216748219 1168.7257150469954 426.9195796487346Q1168.7257150469954 438.1017376226474 1170.6907804650052 443.7396038814611Q1172.6558458830152 449.3774701402749 1177.7556585154691 453.9626227822977L1177.7556585154691 453.9626227822977Q1177.7556585154691 456.6061036422394 1173.5681976842338 457.91614725424597L1173.5681976842338 457.91614725424597Q1172.0008240770119 458.40741360874836 1169.2169814014978 458.40741360874836Q1166.4097450900554 458.40741360874836 1163.3217851474685 456.81664636559765Q1160.233825204882 455.2024854865182 1158.9237815928752 453.6351118792961L1158.9237815928752 453.6351118792961L1157.520163437154 452.0911319080027Q1154.970257120927 455.8575072925214 1149.3791781339708 457.6822108949591L1149.3791781339708 457.6822108949591Q1147.3205381722462 458.40741360874836 1144.6068764045185 458.40741360874836Q1141.8932146367906 458.40741360874836 1139.9281492187808 457.30791272010003Q1137.963083800771 456.18501819552307 1137.6355728977694 455.03873003501735L1137.6355728977694 455.03873003501735L1137.308061994768 453.9626227822977Q1142.4078746272219 449.3774701402749 1144.3729400452316 443.7396038814611Q1146.3380054632414 438.1017376226474 1146.3380054632414 430.0309332272501Q1146.3380054632414 421.98352246778154 1145.5192282057374 417.37497618983Q1144.7004509482333 412.7664299118785 1143.50737551587 410.5440344986532Q1142.314300083507 408.3216390854278 1141.0744373792866 407.0115954734214Q1139.857968310995 405.7015518614148 1139.015797417562 405.06992369134025Q1138.197020160058 404.4616891571944 1138.197020160058 403.8534546230485Q1138.197020160058 403.2218264529739 1139.015797417562 402.613591918828Q1139.857968310995 402.00535738468216 1141.0744373792866 400.8356755882478Q1142.314300083507 399.6893874277421 1143.4605882440128 397.4669920145167L1143.4605882440128 397.4669920145167Q1146.3380054632414 392.0396684790611 1146.3380054632414 379.54746689314186Q1146.3380054632414 367.03187167129397 1144.419727317089 361.53436722805236Q1142.4780555350078 356.013469148882 1137.308061994768 350.9136565164281L1137.308061994768 350.9136565164281Q1137.308061994768 348.293569292415 1141.495522826003 346.98352568040855L1141.495522826003 346.98352568040855Q1143.062896433225 346.49225932590605 1145.1917173027357 346.49225932590605ZM1157.3564079856533 309.97479364122444L1157.3564079856533 309.97479364122444L1174.6443049369534 325.08708245115673L1157.2862270778671 340.71403125152017L1152.9350107951313 336.94765586700146Q1148.5604008764667 333.2514613902688 1144.2793655015168 329.4616923698213L1144.2793655015168 329.4616923698213L1139.9281492187808 325.67192334937397Q1139.9281492187808 325.18065699487147 1148.2796772453225 317.577725318048Q1156.631205271864 309.97479364122444 1157.3564079856533 309.97479364122444ZM1220.0279586386077 458.40741360874836L1220.0279586386077 458.40741360874836Q1212.14430333064 458.40741360874836 1207.7696934119754 452.90990916550675L1207.7696934119754 452.90990916550675Q1205.477117090964 456.3487736470239 1199.9562190117938 457.8459663464598L1199.9562190117938 457.8459663464598Q1197.827398142283 458.40741360874836 1195.6050027290578 458.40741360874836Q1193.3826073158325 458.40741360874836 1191.8152337086103 457.96293452610325Q1190.271253737317 457.51845544345827 1189.4290828438843 456.86343363745493L1189.4290828438843 456.86343363745493Q1187.8851028725908 455.52999638951974 1187.6277728773753 453.9626227822977L1187.6277728773753 453.9626227822977Q1193.5463627673332 450.7576946600675 1194.8798000152685 446.6638083725471L1194.8798000152685 446.6638083725471Q1196.3535990787757 442.21901754609644 1196.4705672584191 437.23617309328597Q1196.5875354380626 432.2533286404754 1196.5875354380626 426.98976055652065Q1196.5875354380626 421.7261924725659 1195.7687581805585 417.2580080101866Q1194.9499809230545 412.7664299118785 1193.7569054906915 410.5440344986532Q1192.5638300583284 408.3216390854278 1191.323967354108 407.0115954734214Q1190.1074982858163 405.7015518614148 1189.2653273923834 405.06992369134025Q1188.4465501348793 404.4616891571944 1188.4465501348793 403.68969917154766Q1188.4465501348793 402.89431554997225 1189.2653273923834 401.95857011282476Q1190.1074982858163 400.99943103974863 1191.323967354108 399.12794016545354Q1192.5638300583284 397.2330556552298 1193.7101182188342 393.6772229940693L1193.7101182188342 393.6772229940693Q1196.5875354380626 385.37248223938514 1196.5875354380626 366.14291350600377Q1196.5875354380626 346.88995113669375 1194.622470020053 337.48570949336124Q1192.6574046020432 328.0580742141001 1187.557591969589 320.66568526063475L1187.557591969589 320.66568526063475Q1187.557591969589 318.022204400693 1191.7450528008242 316.71216078868656L1191.7450528008242 316.71216078868656Q1193.3124264080463 316.22089443418406 1195.4412472775568 316.22089443418406L1195.4412472775568 316.22089443418406Q1203.909743483742 316.22089443418406 1207.8632679556902 322.5371761349298L1207.8632679556902 322.5371761349298Q1210.4131742719171 318.770800750411 1215.9340723510875 316.87591624018734L1215.9340723510875 316.87591624018734Q1217.9693186768832 316.22089443418406 1220.1215331823225 316.22089443418406Q1222.250354051833 316.22089443418406 1223.8177276590552 316.66537351682916Q1225.3851012662774 317.1098525994742 1226.1103039800666 317.7882680414061L1226.1103039800666 317.7882680414061Q1227.7712521310034 319.0983116534127 1228.0051884902905 320.66568526063475L1228.0051884902905 320.66568526063475Q1222.9053758578364 328.0580742141001 1220.9403104398266 337.48570949336124Q1218.9752450218168 346.88995113669375 1218.9752450218168 360.7155899705482Q1218.9752450218168 374.517835168474 1219.7940222793209 382.3780968405131Q1220.612799536825 390.23835851255217 1221.8526622410457 393.7240102659267Q1223.0691313093373 397.2330556552298 1224.2622067417003 399.12794016545354Q1225.4552821740633 400.99943103974863 1226.2740594315676 401.95857011282476Q1227.1162303250003 402.89431554997225 1227.1162303250003 403.68969917154766Q1227.1162303250003 404.4616891571944 1226.2740594315676 405.06992369134025Q1225.4552821740633 405.7015518614148 1224.2622067417003 407.0115954734214Q1223.0691313093373 408.3216390854278 1221.8526622410457 410.5440344986532L1221.8526622410457 410.5440344986532Q1218.9752450218168 415.7374216748219 1218.9752450218168 427.8085378140247L1218.9752450218168 427.8085378140247Q1218.9752450218168 440.97915484187604 1219.489905012248 442.87403935209966Q1220.0279586386077 444.7689238623234 1220.6595868086824 446.6170211006897Q1221.2678213428283 448.46511833905606 1222.250354051833 449.44765104806095L1222.250354051833 449.44765104806095Q1225.0575903632755 452.41864281100425 1227.9350075825043 453.9626227822977L1227.9350075825043 453.9626227822977Q1227.9350075825043 456.6061036422394 1223.8177276590552 457.91614725424597L1223.8177276590552 457.91614725424597Q1222.180173144047 458.40741360874836 1220.0279586386077 458.40741360874836ZM1245.784351796093 346.49225932590605L1245.784351796093 346.49225932590605Q1252.9428043902715 346.49225932590605 1258.1127979305118 352.8085410266517L1258.1127979305118 352.8085410266517Q1260.6627042467385 349.042165642133 1266.253783233695 347.14728113190927L1266.253783233695 347.14728113190927Q1268.3124231954193 346.49225932590605 1270.44124406493 346.49225932590605Q1272.5934585703692 346.49225932590605 1274.1608321775914 346.93673840855115Q1275.704812148885 347.38121749119614 1276.4534084986028 348.0362392971995L1276.4534084986028 348.0362392971995Q1278.090963013611 349.36967654513467 1278.3482930088264 350.9136565164281L1278.3482930088264 350.9136565164281Q1273.1549058326577 355.94328824109596 1271.2366276865052 361.44079268433757Q1269.2949559044243 366.9616907635078 1269.2949559044243 375.9214533241952Q1269.2949559044243 384.88121588488275 1270.1137331619286 390.02781578919405Q1270.9325104194324 395.17441569350535 1272.172373123653 397.4202047426594Q1273.4122358278735 399.6893874277421 1274.6053112602365 400.8356755882478Q1275.7983866925995 402.00535738468216 1276.6171639501035 402.613591918828Q1277.4359412076076 403.2218264529739 1277.4359412076076 403.8534546230485Q1277.4359412076076 404.4616891571944 1276.6171639501035 405.06992369134025Q1275.7983866925995 405.7015518614148 1274.6053112602365 407.0115954734214Q1273.4122358278735 408.3216390854278 1272.172373123653 410.5440344986532L1272.172373123653 410.5440344986532Q1269.2949559044243 415.7374216748219 1269.2949559044243 426.9195796487346Q1269.2949559044243 438.1017376226474 1271.283414958363 443.7396038814611Q1273.2484803763725 449.3774701402749 1278.3482930088264 453.9626227822977L1278.3482930088264 453.9626227822977Q1278.3482930088264 456.6061036422394 1274.1608321775914 457.91614725424597L1274.1608321775914 457.91614725424597Q1272.5934585703692 458.40741360874836 1269.7862222589267 458.40741360874836Q1267.002379583413 458.40741360874836 1263.914419640826 456.81664636559765Q1260.8264596982392 455.2024854865182 1259.5164160862328 453.6351118792961L1259.5164160862328 453.6351118792961L1258.1127979305118 452.0911319080027Q1255.5628916142846 455.8575072925214 1249.971812627328 457.6822108949591L1249.971812627328 457.6822108949591Q1247.9131726656037 458.40741360874836 1245.199510897876 458.40741360874836Q1242.4858491301482 458.40741360874836 1240.5207837121384 457.30791272010003Q1238.5323246582 456.18501819552307 1238.204813755198 455.03873003501735L1238.204813755198 455.03873003501735L1237.8773028521966 453.9626227822977Q1242.9771154846505 449.3774701402749 1244.9655745385892 443.7396038814611Q1246.9306399565987 438.1017376226474 1246.9306399565987 430.0309332272501Q1246.9306399565987 421.98352246778154 1246.1118626990947 417.37497618983Q1245.2930854415906 412.7664299118785 1244.1000100092276 410.5440344986532Q1242.9069345768646 408.3216390854278 1241.667071872644 407.0115954734214Q1240.4272091684236 405.7015518614148 1239.6084319109195 405.06992369134025Q1238.7896546534155 404.4616891571944 1238.7896546534155 403.8534546230485Q1238.7896546534155 403.2218264529739 1239.6084319109195 402.613591918828Q1240.4272091684236 402.00535738468216 1241.667071872644 400.8356755882478Q1242.9069345768646 399.6893874277421 1244.0532227373703 397.4669920145167L1244.0532227373703 397.4669920145167Q1246.9306399565987 392.0396684790611 1246.9306399565987 379.54746689314186Q1246.9306399565987 367.03187167129397 1244.9889681745178 361.53436722805236Q1243.0706900283653 356.013469148882 1237.8773028521966 350.9136565164281L1237.8773028521966 350.9136565164281Q1237.8773028521966 348.293569292415 1242.0647636834317 346.98352568040855L1242.0647636834317 346.98352568040855Q1243.6321372906539 346.49225932590605 1245.784351796093 346.49225932590605ZM1257.9490424790108 309.97479364122444L1257.9490424790108 309.97479364122444L1275.2135457943825 325.08708245115673L1257.855467935296 340.71403125152017L1253.5042516525602 336.94765586700146Q1249.1530353698242 333.2514613902688 1244.8719999948742 329.4616923698213L1244.8719999948742 329.4616923698213L1240.5207837121384 325.67192334937397Q1240.5207837121384 325.18065699487147 1248.8723117386799 317.577725318048Q1257.2004461292927 309.97479364122444 1257.9490424790108 309.97479364122444ZM1343.803686337295 445.4239456683266L1343.803686337295 445.4239456683266Q1341.5111100162835 453.7286864230108 1334.8439237766074 457.02718908895577L1334.8439237766074 457.02718908895577Q1331.732570198092 458.5711690602492 1328.504248439933 459.2729781381098Q1325.2993203177027 459.9747872159704 1320.1995076852488 459.9747872159704Q1315.099695052795 459.9747872159704 1309.5086160658386 457.8459663464598L1309.5086160658386 457.8459663464598Q1306.0697515843215 456.5125290985246 1303.3794834525222 454.383708229014Q1300.712608956652 452.2548873595035 1298.4902135434265 448.41833106719866Q1296.2678181302015 444.60516841082256 1295.3788599649113 439.6925048657981Q1294.4665081636924 434.80323495670245 1289.857961885741 429.21215596974605L1289.857961885741 429.21215596974605Q1288.3841628222337 427.48102691102315 1288.3841628222337 427.08333510023544Q1288.3841628222337 426.6622496535191 1291.3083673133194 423.3403533516454Q1294.209178168477 419.995063413843 1294.9577745181948 416.55619893232597L1294.9577745181948 416.55619893232597Q1297.3439253829208 405.4442218661992 1305.812421589106 400.9292501319625L1305.812421589106 400.9292501319625Q1309.5086160658386 398.870610170238 1313.7896514407885 397.4669920145167Q1318.0706868157383 396.06337385879544 1322.0476049236152 394.9170856982897Q1326.0479166674208 393.770797537784 1329.346419333366 392.15663665870454Q1332.6215283633821 390.56586941555383 1334.6099874173206 387.477909472967Q1336.5750528353303 384.38994953038025 1336.5750528353303 378.4245723685649Q1336.5750528353303 372.4591952067494 1336.1539673886139 367.3593825742955L1336.1539673886139 367.3593825742955Q1335.920031029327 364.24802899578003 1335.2884028592523 362.6104744807719Q1334.6801683251067 360.94952632983507 1333.697635616102 359.382152722613Q1332.715102907097 357.8381727513196 1331.1477292998748 357.2065445812451Q1329.5803556926528 356.5983100470992 1326.7965130171388 356.5983100470992Q1323.9892767056963 356.5983100470992 1321.930636743972 358.9844609118253Q1319.8719967822474 361.3706117765515 1319.8719967822474 364.99662534549805Q1319.8719967822474 368.59924527851604 1322.375115826617 373.74584518282734Q1324.9016285069151 378.89244508713864 1329.252844789651 379.94515870392956L1329.252844789651 379.94515870392956Q1327.0304493764258 385.2087267878843 1321.8838494721144 385.2087267878843Q1316.760643203732 385.2087267878843 1312.3860332850672 381.8400432141533L1312.3860332850672 381.8400432141533Q1312.8071187317837 382.26112866086964 1310.5847233185582 385.8871422298163L1310.5847233185582 385.8871422298163Q1309.6021906095534 387.5246967448244 1308.198572453832 389.1622512598326Q1306.7949542981107 390.7998057748407 1304.5725588848854 391.96948757127507Q1302.3501634716602 393.1157757317808 1300.0575871506487 393.1157757317808Q1297.7650108296373 393.1157757317808 1296.7590844847039 391.8759130275604L1296.7590844847039 391.8759130275604Q1301.0401198596535 387.5948776526104 1301.0401198596535 383.8285022680917L1301.0401198596535 383.8285022680917Q1301.0401198596535 382.4248841123705 1299.8938316991478 377.86312510627636Q1298.747543538642 373.30136610018224 1298.747543538642 371.07897068695695L1298.747543538642 371.07897068695695Q1298.747543538642 361.04310087354986 1306.3972624873231 354.8671809883763L1306.3972624873231 354.8671809883763Q1309.7659460610541 352.08333831286245 1315.7547168587982 349.20592109363383Q1321.766881292471 346.3051102384766 1329.5803556926528 346.3051102384766L1329.5803556926528 346.3051102384766Q1362.4016269006017 346.3051102384766 1362.4016269006017 382.16755411715496L1362.4016269006017 382.16755411715496Q1362.4016269006017 390.7998057748407 1365.676735930618 397.6307474660175L1365.676735930618 397.6307474660175Q1367.2441095378401 400.76549468046164 1372.6012521655095 403.87684825897713L1372.6012521655095 403.87684825897713Q1372.6012521655095 404.2043591619788 1371.6421130924334 404.8827746039108Q1370.706367655286 405.537796409914 1369.3027494995647 406.964808201564Q1367.8991313438432 408.4152136291426 1366.5189068240506 410.6376090423679Q1365.1152886683294 412.8600044555933 1364.1561495952533 417.04746528682836Q1363.2204041581056 421.2349261180635 1363.2204041581056 429.3759114212469Q1363.2204041581056 437.51689672443024 1365.3492250276163 443.6460293377464Q1367.5014395330556 449.7751619510626 1371.6187194565048 454.1263782337985L1371.6187194565048 454.1263782337985Q1370.8701231067867 455.52999638951974 1368.4839722420604 456.86343363745493L1368.4839722420604 456.86343363745493Q1367.3376840815547 457.42488089974347 1365.2322568479728 457.8693599823886Q1363.126829614391 458.3372327009623 1360.3897742107345 458.3372327009623Q1357.6293251711493 458.3372327009623 1354.8220888597068 456.9336145452411L1354.8220888597068 456.9336145452411Q1347.850785352958 453.4713564277953 1343.803686337295 445.4239456683266ZM1318.5619531702407 426.59206874573294L1318.5619531702407 428.393378712242Q1318.5619531702407 446.897744731834 1326.3754275704225 446.897744731834L1326.3754275704225 446.897744731834Q1329.6739302363674 446.897744731834 1331.3114847513755 445.6578820276135L1331.3114847513755 445.6578820276135Q1332.2940174603805 445.00286022161026 1333.0426138100986 444.34783841560704Q1333.7678165238879 443.6928166096037 1334.3058701502478 442.2891984538825Q1334.8439237766074 440.88558029816124 1335.7094883059688 438.75675942865064Q1336.5750528353303 436.62793855914003 1336.5750528353303 424.86093968701005L1336.5750528353303 424.86093968701005Q1336.5750528353303 424.86093968701005 1336.5750528353303 410.6376090423679L1336.5750528353303 410.6376090423679Q1336.5750528353303 398.05183291273386 1336.6452337431163 398.05183291273386L1336.6452337431163 398.05183291273386Q1334.5164128736058 400.27422832595926 1329.8376856878683 403.8066673511911Q1325.135564866202 407.33910637642293 1322.3517221906882 410.96511994536957L1322.3517221906882 410.96511994536957Q1318.5619531702407 415.80760258260796 1318.5619531702407 426.59206874573294L1318.5619531702407 426.59206874573294Z " fill="#e51d2e" transform="matrix(0.6374757289209168,0,0,0.6374757289209168,0,54.58791422145208)"/></g></svg>